HIERARCHY
ROOT SpineBase
{
  OFFSET 0.000000 0.000000 0.000000
  CHANNELS 6 Xposition Yposition Zposition Zrotation Xrotation Yrotation
  JOINT SpineMid
  {
    OFFSET -0.000000 31.180817 0.000000
    CHANNELS 3 Zrotation Xrotation Yrotation
    JOINT SpineShoulder
    {
      OFFSET -0.074820 23.300985 -0.589884
      CHANNELS 3 Zrotation Xrotation Yrotation
      JOINT Neck
      {
        OFFSET 0.037601 7.752458 -0.515204
        CHANNELS 3 Zrotation Xrotation Yrotation
        JOINT Head
        {
          OFFSET -5.155952 13.046958 0.053518
          CHANNELS 3 Zrotation Xrotation Yrotation
          End Site
          {
            OFFSET 0 0 0
          }
        }
      }
      JOINT ShoulderLeft
      {
        OFFSET -15.846412 -5.460904 4.290723
        CHANNELS 3 Zrotation Xrotation Yrotation
        JOINT ElbowLeft
        {
          OFFSET -1.472425 -29.086187 1.236419
          CHANNELS 3 Zrotation Xrotation Yrotation
          JOINT WristLeft
          {
            OFFSET -3.480821 -20.863265 -4.917248
            CHANNELS 3 Zrotation Xrotation Yrotation
            JOINT HandLeft
            {
              OFFSET 0.053359 -3.942880 -1.237853
              CHANNELS 3 Zrotation Xrotation Yrotation
              JOINT HandTipLeft
              {
                OFFSET 0.571956 -7.159631 -3.983658
                CHANNELS 3 Zrotation Xrotation Yrotation
                End Site
                {
                  OFFSET 0 0 0
                }
              }
              JOINT ThumbLeft
              {
                OFFSET 2.916473 1.419252 -1.105944
                CHANNELS 3 Zrotation Xrotation Yrotation
                End Site
                {
                  OFFSET 0 0 0
                }
              }
            }
          }
        }
      }
      JOINT ShoulderRight
      {
        OFFSET 14.707960 -1.749814 -7.454743
        CHANNELS 3 Zrotation Xrotation Yrotation
        JOINT ElbowRight
        {
          OFFSET 8.029806 -24.370476 0.774915
          CHANNELS 3 Zrotation Xrotation Yrotation
          JOINT WristRight
          {
            OFFSET 1.019857 -21.586858 -5.093387
            CHANNELS 3 Zrotation Xrotation Yrotation
            JOINT HandRight
            {
              OFFSET -1.926957 -5.920221 -0.481660
              CHANNELS 3 Zrotation Xrotation Yrotation
              JOINT HandTipRight
              {
                OFFSET 0.742944 -4.997447 -0.176833
                CHANNELS 3 Zrotation Xrotation Yrotation
                End Site
                {
                  OFFSET 0 0 0
                }
              }
              JOINT ThumbRight
              {
                OFFSET -2.938688 1.472698 -1.643992
                CHANNELS 3 Zrotation Xrotation Yrotation
                End Site
                {
                  OFFSET 0 0 0
                }
              }
            }
          }
        }
      }
    }
  }
  JOINT HipLeft
  {
    OFFSET -6.467128 0.486069 -1.138584
    CHANNELS 3 Zrotation Xrotation Yrotation
    JOINT KneeLeft
    {
      OFFSET -10.905256 -25.232621 -4.296028
      CHANNELS 3 Zrotation Xrotation Yrotation
      JOINT AnkleLeft
      {
        OFFSET 3.777116 -30.122791 11.546226
        CHANNELS 3 Zrotation Xrotation Yrotation
        JOINT FootLeft
        {
          OFFSET 0.102121 3.861345 -15.532509
          CHANNELS 3 Zrotation Xrotation Yrotation
          End Site
          {
            OFFSET 0 0 0
          }
        }
      }
    }
  }
  JOINT HipRight
  {
    OFFSET 6.956724 1.490346 -5.487968
    CHANNELS 3 Zrotation Xrotation Yrotation
    JOINT KneeRight
    {
      OFFSET 6.241434 -32.473467 3.582325
      CHANNELS 3 Zrotation Xrotation Yrotation
      JOINT AnkleRight
      {
        OFFSET 4.835340 -27.763907 1.114064
        CHANNELS 3 Zrotation Xrotation Yrotation
        JOINT FootRight
        {
          OFFSET -1.357184 -7.526260 -4.007901
          CHANNELS 3 Zrotation Xrotation Yrotation
          End Site
          {
            OFFSET 0 0 0
          }
        }
      }
    }
  }
}
MOTION
Frames: 7
Frame Time: 0.033333
-14.234488 59.871160 355.201193 30.139041 -10.535085 31.642426 -1.026723 0.395096 -27.942969 -0.307358 0.338258 1.216225 15.380339 3.815009 -7.331888 0.000000 0.000000 0.000000 -10.053673 60.670935 -13.275640 -23.474213 -21.396503 -11.751809 -15.168911 -28.894992 -0.744399 8.729623 -8.041788 -0.811178 0.000000 0.000000 0.000000 0.000000 0.000000 0.000000 -90.944594 19.658304 24.942652 39.265563 -31.710517 0.881471 2.625447 77.346489 -13.697673 24.097224 -65.019675 25.241839 0.000000 0.000000 0.000000 0.000000 0.000000 0.000000 -134.321514 69.435781 62.006938 96.081285 -20.957535 55.197426 -9.518552 -39.535658 22.422833 0.000000 0.000000 0.000000 -19.637888 35.010317 -23.450970 -7.804920 -17.027251 -5.676345 -33.341192 2.221282 26.964267 0.000000 0.000000 0.000000
-14.347041 59.744925 355.237993 29.341179 -10.496773 31.427759 -1.357295 0.640868 -27.822196 -0.702377 0.284864 1.192719 17.736029 1.678211 -7.390308 0.000000 0.000000 0.000000 -11.375609 60.879729 -11.552431 -22.369346 -23.801104 -11.128291 -13.131836 -26.037031 0.210819 3.847959 -17.290927 -1.521511 0.000000 0.000000 0.000000 0.000000 0.000000 0.000000 -87.759518 20.043576 24.423319 38.725519 -31.017451 0.915763 -6.673748 72.664704 -5.862138 29.334765 -66.844284 26.039356 0.000000 0.000000 0.000000 0.000000 0.000000 0.000000 -134.456836 68.384241 62.193130 98.176976 -19.807221 55.629458 -11.110589 -42.361927 21.029036 0.000000 0.000000 0.000000 -19.739433 33.417327 -23.420288 -8.101211 -14.819344 -5.074510 -31.245823 -1.535960 25.308419 0.000000 0.000000 0.000000
-14.531247 59.466444 355.295293 28.243637 -10.434295 30.029756 -1.721912 0.872343 -26.560321 -1.044203 0.225796 1.152605 22.098171 -0.361095 -7.527827 0.000000 0.000000 0.000000 -8.385822 61.454575 -12.509251 -24.717361 -26.352749 -12.225409 -10.286905 -23.205335 0.925315 -3.633033 -20.022075 0.685434 0.000000 0.000000 0.000000 0.000000 0.000000 0.000000 -84.376014 21.172558 24.696362 35.805262 -30.422954 0.442741 -12.145387 63.261299 -1.043548 22.574402 -61.172623 16.142035 0.000000 0.000000 0.000000 0.000000 0.000000 0.000000 -133.953657 66.000703 61.438409 100.525995 -18.349555 55.914985 -12.241317 -44.326108 20.097505 0.000000 0.000000 0.000000 -19.136512 32.766307 -22.371580 -9.093108 -15.140109 -5.462208 -23.652752 -1.597842 21.590900 0.000000 0.000000 0.000000
-14.898680 59.062486 355.445386 26.764816 -10.448621 29.186573 -1.961985 1.087634 -25.894540 -1.245213 0.177668 1.093166 25.634320 -1.940533 -7.540192 0.000000 0.000000 0.000000 -2.701150 60.704175 -14.776115 -27.264588 -27.567532 -13.228459 -10.479282 -18.926716 1.785536 -8.297745 -21.187671 2.105709 0.000000 0.000000 0.000000 0.000000 0.000000 0.000000 -81.119029 23.183525 25.982446 30.143203 -33.276798 -1.597094 -14.953072 54.461602 2.520304 10.137094 -49.621044 4.004298 0.000000 0.000000 0.000000 0.000000 0.000000 0.000000 -131.045273 65.097208 59.266445 101.048163 -17.455043 55.487415 -12.934515 -44.782050 19.688252 0.000000 0.000000 0.000000 -14.399240 31.971970 -23.068589 -16.125595 -17.339886 -8.117247 -22.642296 7.694607 24.147898 0.000000 0.000000 0.000000
-15.311633 58.657719 355.575542 25.196113 -10.412772 29.138935 -2.085126 1.229854 -26.046144 -1.278484 0.160557 1.023312 28.019004 -2.656698 -7.473209 0.000000 0.000000 0.000000 4.735528 59.453484 -18.076121 -27.286914 -29.812608 -13.074069 -16.156092 -13.179288 3.255425 -10.265841 -25.668601 0.434825 0.000000 0.000000 0.000000 0.000000 0.000000 0.000000 -78.174134 25.409815 27.472375 20.918347 -36.947890 -5.577768 -15.443731 40.409023 4.731321 4.548450 -27.240063 0.247978 0.000000 0.000000 0.000000 0.000000 0.000000 0.000000 -130.204916 65.111060 59.303879 100.542893 -17.015974 54.857741 -12.024842 -44.501041 20.300299 0.000000 0.000000 0.000000 -14.389944 31.055434 -23.132361 -14.090517 -16.295286 -7.167682 -22.568548 12.840410 23.489051 0.000000 0.000000 0.000000
-15.764065 58.332537 355.717277 23.797414 -10.356426 29.586444 -1.893346 1.318721 -26.713580 -1.138125 0.178743 0.960180 26.950725 -2.939710 -7.202071 0.000000 0.000000 0.000000 19.042765 58.209727 -26.080480 -40.780405 -31.411551 -19.227540 -13.311795 -6.643546 4.499208 -11.670157 -25.475159 0.716551 0.000000 0.000000 0.000000 0.000000 0.000000 0.000000 -75.553105 27.962636 29.032188 8.804813 -39.942669 -11.529194 -7.891648 24.184147 2.226737 -8.112520 -1.370746 2.303270 0.000000 0.000000 0.000000 0.000000 0.000000 0.000000 -130.337940 64.397951 59.883677 101.059369 -15.803208 53.935800 -11.499081 -43.063703 21.405481 0.000000 0.000000 0.000000 -15.470545 29.747669 -23.471859 -10.619066 -14.101811 -5.472342 -21.320696 19.541376 21.517561 0.000000 0.000000 0.000000
-16.225782 58.173355 355.804753 22.471912 -10.270994 31.468767 -1.743500 1.434688 -28.793316 -1.005621 0.193626 0.899789 24.798643 -2.685716 -6.918748 0.000000 0.000000 0.000000 25.501456 55.313811 -28.079442 -49.704543 -26.990135 -22.175447 -8.885102 -2.712922 5.067999 -10.658264 -22.470965 1.742295 0.000000 0.000000 0.000000 0.000000 0.000000 0.000000 -73.386629 30.487560 30.765700 -4.589548 -41.488509 -18.821898 2.261806 11.106259 -1.084468 -23.068586 19.427334 13.139819 0.000000 0.000000 0.000000 0.000000 0.000000 0.000000 -132.012852 64.576718 62.114130 101.470780 -14.488991 52.731656 -11.001703 -40.568091 22.684686 0.000000 0.000000 0.000000 -16.391364 28.932593 -25.294782 -4.951437 -11.143714 -3.262929 -20.343925 18.232011 18.172523 0.000000 0.000000 0.000000
